<svg id="Layer_1" enable-background="new 0 0 512.203 512.203" height="512" viewBox="0 0 512.203 512.203" width="512" xmlns="http://www.w3.org/2000/svg"><g><g clip-rule="evenodd" fill-rule="evenodd"><path d="m192.794 314.704c2.92 14.644 15.842 25.68 31.344 25.68 17.653 0 31.964-14.311 31.964-31.964 0 17.653 14.31 31.964 31.964 31.964 15.502 0 28.425-11.036 31.344-25.68 17.425-2.833 30.728-17.949 30.728-36.175 0-2.325-.219-4.598-.633-6.803 15.594-6.31 26.597-21.595 26.597-39.452 0-16.809-9.749-31.339-23.899-38.25 7.566-6.715 12.336-16.511 12.336-27.423 0-14.725-8.685-27.42-21.21-33.248 1.018-2.911 1.574-6.039 1.574-9.297 0-15.544-12.601-28.146-28.146-28.146-4.207 0-8.198.925-11.781 2.579v-2.034c0-13.44-10.996-24.436-24.437-24.436-13.44 0-24.436 10.997-24.436 24.436 0-13.44-10.996-24.436-24.436-24.436s-24.436 10.997-24.436 24.436v2.034c-3.584-1.655-7.575-2.579-11.782-2.579-15.544 0-28.146 12.601-28.146 28.146 0 3.258.556 6.386 1.574 9.297-12.525 5.828-21.21 18.523-21.21 33.248 0 10.912 4.77 20.708 12.335 27.423-14.151 6.911-23.899 21.441-23.899 38.25 0 17.857 11.002 33.142 26.597 39.452-.414 2.205-.633 4.479-.633 6.803-.002 18.226 13.302 33.342 30.727 36.175z" fill="#e38eba"/><path d="m224.138 340.383c-15.502 0-28.425-11.036-31.344-25.68-17.425-2.833-30.728-17.949-30.728-36.175 0-2.325.219-4.598.633-6.803-15.594-6.31-26.597-21.595-26.597-39.452 0-16.809 9.749-31.339 23.899-38.25-7.566-6.715-12.335-16.511-12.335-27.423 0-14.725 8.684-27.42 21.21-33.248-1.018-2.911-1.574-6.039-1.574-9.297 0-15.544 12.601-28.146 28.146-28.146 4.207 0 8.198.925 11.782 2.579v-2.034c0-13.44 10.996-24.436 24.436-24.436s24.436 10.997 24.436 24.436c0-13.44 10.996-24.436 24.436-24.436s24.437 10.997 24.437 24.436v2.034c3.584-1.655 7.575-2.579 11.781-2.579 15.544 0 28.146 12.601 28.146 28.146 0 3.258-.556 6.386-1.574 9.297 12.526 5.828 21.21 18.523 21.21 33.248 0 10.912-4.77 20.708-12.336 27.423 14.151 6.911 23.899 21.441 23.899 38.25 0 17.857-11.002 33.142-26.597 39.452.414 2.205.633 4.479.633 6.803 0 18.226-13.303 33.342-30.728 36.175-2.92 14.644-15.842 25.68-31.344 25.68-17.653 0-31.964-14.311-31.964-31.964.001 17.654-14.31 31.964-31.963 31.964zm191.964 81.819v-252.001c0-88-72-160-160.001-160-88 0-160 72-160 160v252.001h70.006v-20l20-20h139.99l20 20v20z" fill="#66e0f7"/><path d="m326.097 382.202h-139.99l-20 20v20h-70.005-10v40.001h170l36.116-40.001h53.878v-20z" fill="#f3eff0"/><path d="m292.218 422.202-36.116 40.001h170v-40.001h-10-70.006z" fill="#e2e9ee"/><path d="m426.102 462.203h-170-170-10l-20 20v20h400v-20l-20-20z" fill="#6d91ac"/></g><g><path d="m463.173 475.132-20-20c-1.876-1.875-4.419-2.929-7.071-2.929v-30.001c0-5.522-4.478-10-10-10v-242.001c.721-120.603-126.006-204.674-236.675-156.297-5.074 2.181-7.42 8.062-5.239 13.136 2.18 5.074 8.062 7.42 13.136 5.239 96.921-42.916 210.008 31.964 208.778 137.923v242.001h-50.006v-10.001c0-2.652-1.054-5.195-2.929-7.071l-19.999-19.999c-1.876-1.875-4.419-2.929-7.071-2.929h-139.99c-2.652 0-5.195 1.054-7.071 2.929l-19.999 19.999c-1.875 1.876-2.929 4.419-2.929 7.071v10.001h-50.006v-242.002c0-30.44 9.186-59.809 26.564-84.93 7.116-11.213-8.477-21.984-16.447-11.379-19.703 28.48-30.117 61.783-30.117 96.309v242.001c-5.522 0-10 4.478-10 10v30.001c-2.652 0-5.195 1.054-7.071 2.929l-20 20c-1.875 1.876-2.929 4.419-2.929 7.071v20c0 5.522 4.478 10 10 10h400c5.522 0 10-4.478 10-10v-20c0-2.652-1.054-5.195-2.929-7.071zm-47.071-42.93v20.001h-137.498l18.058-20.001zm-320 0h70.006c5.522 0 10-4.478 10-10v-15.858l14.142-14.142h131.705l14.142 14.142v5.858h-43.878c-2.829 0-5.526 1.198-7.423 3.299l-33.137 36.702h-155.557zm350 60.001h-380v-5.857l14.143-14.143h351.715l14.143 14.143v5.857z"/><path d="m126.102 232.274c0 18.938 9.982 36.02 25.973 45.35-.427 21.055 13.134 39.436 32.737 45.458 10.907 29.833 51.062 36.799 71.29 12.5 20.238 24.309 60.39 17.32 71.291-12.5 19.603-6.022 33.165-24.403 32.737-45.458 31.208-17.594 34.911-63.423 7.003-85.81 13.607-20.287 7.633-49.836-12.477-63.416 2.951-23.635-17.583-44.694-41.286-42.341-7.475-24.351-39.373-32.263-57.269-13.842-17.904-18.429-49.8-10.498-57.268 13.843-23.703-2.357-44.238 18.707-41.287 42.34-20.11 13.579-26.081 43.133-12.476 63.416-11.921 9.833-18.968 24.477-18.968 40.46zm38.288-29.265c2.998-1.464 5.067-4.326 5.52-7.632.451-3.306-.775-6.618-3.271-8.833-11.471-9.887-11.902-28.393-1.112-38.83 2.969 3.755 6.641 6.947 10.848 9.376 4.698 2.737 10.883 1.167 13.66-3.66 2.762-4.783 1.123-10.899-3.66-13.66-3.761-2.171-6.621-5.624-8.056-9.723-.025-.071-.051-.141-.077-.211-5.105-14.896 10.546-28.942 24.797-22.267 3.098 1.428 6.71 1.181 9.58-.657 2.873-1.838 4.61-5.013 4.61-8.423v-2.033c.798-19.16 28.083-19.14 28.872 0 0 5.522 4.478 10 10 10s10-4.478 10-10c.448-17.11 24.067-19.785 28.461-3.433-4.405 3.143-8.09 7.193-10.841 11.959-6.183 11.702 10.218 21.245 17.32 10 1.886-3.267 4.693-5.827 8.12-7.406.081-.037.161-.076.241-.115 14.336-6.462 29.767 7.779 24.486 22.588-1.697 4.853.561 10.201 5.221 12.369 14.983 6.706 20.202 26.661 10.38 39.784-.773-.246-1.552-.475-2.334-.684-5.332-1.43-10.817 1.737-12.246 7.072-1.43 5.335 1.737 10.817 7.072 12.246 2.003.537 3.967 1.271 5.836 2.183.103.05.207.098.311.145 24.932 12.249 23.441 49.064-2.375 59.292-4.414 1.786-6.956 6.436-6.077 11.115.307 1.633.462 3.301.462 4.957 0 13.08-9.311 24.103-22.164 26.277-.059.009-.119.017-.178.027-3.739.613-7.576.418-11.21-.557-5.337-1.429-10.818 1.736-12.248 7.07-1.43 5.335 1.736 10.818 7.07 12.248.676.181 1.355.346 2.037.497-13.663 13.538-37.383 3.721-37.344-15.67v-47.429c4.607-2.707 8.459-6.572 11.204-11.327 2.762-4.782 1.123-10.898-3.66-13.66-4.784-2.761-10.898-1.123-13.66 3.66-1.511 2.616-3.949 4.487-6.866 5.269-6.025 1.61-12.235-1.972-13.85-7.995-1.43-5.335-6.915-8.501-12.247-7.071-5.335 1.43-8.501 6.913-7.071 12.247 3.37 12.577 13.983 21.316 26.15 22.936v43.371c-.709 26.465-37.628 30.071-43.501 4.329-.815-4.091-4.084-7.246-8.201-7.915-10.927-1.777-19.323-9.941-21.673-20.347 6.513.739 13.188.244 19.523-1.458 5.334-1.431 8.499-6.914 7.069-12.249-1.431-5.333-6.911-8.501-12.249-7.069-6.779 1.829-14.117 1.386-20.619-1.263-.107-.043-.215-.084-.323-.124-25.702-10.501-26.805-47.328-1.737-59.316z"/><path d="m209.039 192.76c27.694.06 41.782-33.962 22.139-53.446-3.906-3.904-10.236-3.904-14.143 0-3.905 3.905-3.905 10.237 0 14.143 7.104 6.989 1.972 19.368-7.996 19.304-13.26.523-13.264 19.473 0 19.999z"/><path d="m314.261 228.23c13.267-.53 13.259-19.474 0-20-9.968.066-15.098-12.32-7.995-19.304 3.905-3.905 3.905-10.237 0-14.143-3.906-3.904-10.236-3.904-14.143 0-19.65 19.492-5.542 53.511 22.138 53.447z"/><path d="m138.253 332.921c-5.522 0-9.996 4.478-9.996 10 .529 13.263 19.479 13.263 20.004 0 0-5.522-4.478-10-10-10z"/><path d="m373.753 351.921c-5.522 0-9.997 4.478-9.997 10 .529 13.263 19.479 13.263 20.004 0 0-5.522-4.478-10-10-10z"/><path d="m212.215 412.202h-.008c-5.522 0-9.996 4.478-9.996 10 .529 13.263 19.479 13.263 20.004 0 0-5.522-4.478-10-10-10z"/><path d="m154.931 56.485c13.268-.529 13.258-19.476 0-20h-.008c-13.268.53-13.25 19.477.008 20z"/></g></g></svg>